/* XPM */
static char *_7f713254aea449ea928ce0442bc946e[] = {
/* columns rows colors chars-per-pixel */
"32 32 153 2 ",
"   c #5E461B",
".  c #654B1C",
"X  c #6C4F1D",
"o  c #714F17",
"O  c #6E511D",
"+  c #74541B",
"@  c #7A571A",
"#  c #755C1E",
"$  c #7C5A1B",
"%  c #684F20",
"&  c #6E5220",
"*  c #7C6123",
"=  c #825E1D",
"-  c #86621F",
";  c #89651F",
":  c #866C1E",
">  c #8A6A1F",
",  c #93751E",
"<  c #A37D1F",
"1  c #836522",
"2  c #8D6721",
"3  c #876D24",
"4  c #8E6B21",
"5  c #936D22",
"6  c #867322",
"7  c #8B7424",
"8  c #8D7A22",
"9  c #8F7329",
"0  c #8E7A2A",
"q  c #957223",
"w  c #9B7525",
"e  c #927C25",
"r  c #9C7B25",
"t  c #91732C",
"y  c #937D29",
"u  c #9B7C2C",
"i  c #8D7C33",
"p  c #917E33",
"a  c #A17B26",
"s  c #A47D28",
"d  c #958025",
"f  c #9C8325",
"g  c #9F8825",
"h  c #96822D",
"j  c #9C832B",
"k  c #9E892D",
"l  c #938432",
"z  c #9E8431",
"x  c #9C8C33",
"c  c #A18326",
"v  c #A48926",
"b  c #AB8B26",
"n  c #A48329",
"m  c #AA8329",
"M  c #A58B2B",
"N  c #AB8B2A",
"B  c #B48B23",
"V  c #BA8C23",
"C  c #B28D2C",
"Z  c #AF9026",
"A  c #A5922F",
"S  c #AD922C",
"D  c #B79327",
"F  c #BD9325",
"G  c #B3932C",
"H  c #BA962B",
"J  c #B69C2E",
"K  c #BB9B2C",
"L  c #A08231",
"P  c #A08B37",
"I  c #AB8D33",
"U  c #A38F39",
"Y  c #AC9133",
"T  c #AF9932",
"R  c #AB943A",
"E  c #AB993D",
"W  c #B39633",
"Q  c #B99436",
"!  c #B49A32",
"~  c #BB9C32",
"^  c #BCA12D",
"/  c #BCA232",
"(  c #BEA13F",
")  c #C29C2B",
"_  c #CB9E28",
"`  c #C19C31",
"'  c #CCA127",
"]  c #C4A32D",
"[  c #CCA42B",
"{  c #C3AB2E",
"}  c #CDAC2E",
"|  c #D3A227",
" . c #D4A529",
".. c #D4AB2C",
"X. c #DAAC2A",
"o. c #CFB42D",
"O. c #DCB32D",
"+. c #C4A332",
"@. c #C9A533",
"#. c #C5A934",
"$. c #CCAC34",
"%. c #CAAC3B",
"&. c #D1AC34",
"*. c #D9AD31",
"=. c #D2AF38",
"-. c #CDB333",
";. c #CCB239",
":. c #D3B435",
">. c #DCB631",
",. c #D5BA32",
"<. c #DBBB34",
"1. c #D2B338",
"2. c #D7B939",
"3. c #DBBC3A",
"4. c #E7BE2F",
"5. c #E2B532",
"6. c #E3BA32",
"7. c #E8B933",
"8. c #E1BF39",
"9. c #DDC335",
"0. c #DEC43B",
"q. c #E2C436",
"w. c #EDC232",
"e. c #E5CB32",
"r. c #E9CC37",
"t. c #E3C43B",
"y. c #EAC33B",
"u. c #E4CA3D",
"i. c #EACC3C",
"p. c #F1C637",
"a. c #F1C73D",
"s. c #E6D030",
"d. c #E9D235",
"f. c #ECD835",
"g. c #EBD23C",
"h. c #EFD83D",
"j. c #F1D43E",
"k. c #F4DB3F",
"l. c #F9DD3F",
"z. c #C1A642",
"x. c #C7AD41",
"c. c #CAA941",
"v. c #DEC242",
"b. c #E3C742",
"n. c #E5CB41",
"m. c #E6CF48",
"M. c #EED541",
"N. c #F2D641",
"B. c #F5DC41",
"V. c #F9DC42",
"C. c #FDE443",
"Z. c #FFEC43",
"A. c None",
/* pixels */
"A.A.A.A.A.A.A.A.A.A.A.A.I W ~ / ~ W I I A.A.A.A.A.A.A.A.A.A.A.A.",
"A.A.A.A.A.A.A.A.A.L W :.g.B.C.C.C.Z.B.g.9./ Y A.A.A.A.A.A.A.A.A.",
"A.A.A.A.A.A.A.Y ! 3.V.Z.k.B.k.V.C.k.h.k.C.Z.j.~ u A.A.A.A.A.A.A.",
"A.A.A.A.A.A.! :.M.V.N.B.k.C.h.B.C.h.C.C.g.Z.Z.V.+.9 A.A.A.A.A.A.",
"A.A.A.A.A.+.3.t.j.j.h.B.C.C.g.N.j.j.l.h.h.t.&.8.r.i.9 A.A.A.A.A.",
"A.A.A.A.~ t.t.M.u.u.B.M.b.;.` S C ~ $.0.g.i.l.@.i.j.g.c A.A.A.A.",
"A.A.A.~ $.u.0.M.u.g.v.! v v v Z ) K D G ~ 3.i.` i.i.j.3.t A.A.A.",
"A.A.W H 1.C.3.M.b.x.! ^ o.<.>...O.5.>.O...) C 2.a.t.t.t.@.* A.A.",
"A.A./ 2.2.C.3.v.z.J -.d.r.r.q.O.>.O.O.4.4.p.&.` <.3.y.q.m a A.A.",
"A.Y v.C.2.t.i.( / -.u.0.g.i.6.O.X.X.6.w.7.p.a.@.m :.j.$.w q * A.",
"A.W $.3.i.2.0.T ^ 9.9.f.d.d.e.>..._  .O.p.7.7.7.C @.j.+.C 2 1 A.",
"A.~ 0.=.0.2.W f { -.9.e.d.d.q.<...K ..X.4.6.X.5.*.b 1.&.m $ = A.",
"Y +.t.$.n.n.d d J -.o.s.f.s.9.=.] ] '  .X.| | V _ B C &.S = @ X ",
"I +.` 1.C.#.6 e g ^ o.e.0.m.b.%.%.&.*.5.X.X.| F F ) N C m 5 + & ",
"M ;.@.1.C.Y 6 7 v K o.,.,.u.3.+.` @.&.<.O.X._ V B F r C N - @ O ",
"M #.2.=.%.A 8 d g v ^ o.{ 9.,.+.[ X...5.O.' F B F K c 2.c @ = O ",
"M / 1.&.$.A 8 f f v K { ^ } ..) [ ..&.O...) F B b Z f &.N @ = X ",
"j ~ +.$.M.! d g r b ! { ^ J ] +.` ) ] ..] ) D < , c n s s 2 @ X ",
"u ~ ~ &.M.T d d e Z A J ] S G H H ] [ &.) H B < : e n m N q = . ",
"z C +.$.1.~ d 8 : d G S ! ^ M C D ) H H H F b e e e m ) a o @   ",
"A.N @.@.&.W y 6 6 e v Z G G G f D G ] K { Z r , j 3 a Z N = = A.",
"A.c H %.1.N 3 e 7 6 g S J J S M G H G K ] G r e 7 m C 5 5 > @ A.",
"A.u W :.@.n r 7 0 e d A M M N M ~ $.-.$.+.b j L # w C a o @ O A.",
"A.A.C ` C m N 1 0 x h 0 A M M m C ~ #.+.S Y R * 5 ; a m q 4 A.A.",
"A.A.Q Q ~ a m 4 9 3 l l 0 7 y y j Y ~ / R U 1 - s ; w w D # A.A.",
"A.A.A.` ` r c 4 w w 7 l l i i p x E E U 0 $ - 2 q - 5 r M A.A.A.",
"A.A.A.A.%.r m 2 w m m q c M j h t y 3 q a w 5 ; 4 @ 5 J A.A.A.A.",
"A.A.A.A.A.0.n w 5 w q m m m w q q q w s r q 2 = @ > J A.A.A.A.A.",
"A.A.A.A.A.A.;.G 5 w m w q q a 5 s 5 C s 4 - @ $ q N A.A.A.A.A.A.",
"A.A.A.A.A.A.A.k #.G a 5 2 w 2 5 a 5 5 5 @ @ > r * A.A.A.A.A.A.A.",
"A.A.A.A.A.A.A.A.A.k +./ s 5 ; ; q w 5 w N n 1 A.A.A.A.A.A.A.A.A.",
"A.A.A.A.A.A.A.A.A.A.A.A.j Y T ! W T I y A.A.A.A.A.A.A.A.A.A.A.A."
};
