/* XPM */
static char *c8a168e3925b4b658a5ca426006fe32d[] = {
/* columns rows colors chars-per-pixel */
"64 64 254 2 ",
"   c #533C11",
".  c #583F12",
"X  c #574012",
"o  c #5C4314",
"O  c #614616",
"+  c #644916",
"@  c #6D4C16",
"#  c #664C1A",
"$  c #6A4D1A",
"%  c #714F17",
"&  c #724F18",
"*  c #6B5119",
"=  c #6E581B",
"-  c #725117",
";  c #745419",
":  c #79561A",
">  c #755B1D",
",  c #7C5A1B",
"<  c #7C631C",
"1  c #7D691F",
"2  c #775C21",
"3  c #785D21",
"4  c #746120",
"5  c #7D6720",
"6  c #7F6E23",
"7  c #825D1D",
"8  c #85621E",
"9  c #89651F",
"0  c #82691D",
"q  c #8B6B1F",
"w  c #956F1A",
"e  c #85731F",
"r  c #8C721E",
"t  c #93721F",
"y  c #9C761D",
"u  c #9D7A1E",
"i  c #A67B1C",
"p  c #836522",
"a  c #8B6620",
"s  c #846C22",
"d  c #8D6B22",
"f  c #926D22",
"g  c #986E23",
"h  c #857322",
"j  c #8B7422",
"k  c #8D7A23",
"l  c #87732A",
"z  c #8B7328",
"x  c #8E7A2C",
"c  c #957323",
"v  c #9B7425",
"b  c #937C24",
"n  c #9B7B25",
"m  c #937D29",
"M  c #9B7D2A",
"N  c #897638",
"B  c #8F7E3D",
"V  c #917F31",
"C  c #A07727",
"Z  c #A27C26",
"A  c #A47D28",
"S  c #A97F29",
"D  c #AD821E",
"F  c #958225",
"G  c #9B8325",
"H  c #968229",
"J  c #9C832A",
"K  c #978C2B",
"L  c #9C8A2B",
"P  c #9C912C",
"I  c #8F8037",
"U  c #948435",
"Y  c #988535",
"T  c #9B8B31",
"R  c #96843C",
"E  c #98873C",
"W  c #9A8B3A",
"Q  c #A28426",
"!  c #AC8623",
"~  c #A48A26",
"^  c #AA8B25",
"/  c #A48429",
"(  c #AA842A",
")  c #A48B2A",
"_  c #AC8B2A",
"`  c #B18622",
"'  c #B38B24",
"]  c #BA8E23",
"[  c #B0872C",
"{  c #B28C2B",
"}  c #B98F2E",
"|  c #A79026",
" . c #AB9227",
".. c #A4922D",
"X. c #AC922B",
"o. c #AA9C2E",
"O. c #B39226",
"+. c #BB9426",
"@. c #B79A27",
"#. c #BB9A26",
"$. c #B4932C",
"%. c #BA952D",
"&. c #B49A2C",
"*. c #BC9C2D",
"=. c #A38530",
"-. c #A38C32",
";. c #AC8D31",
":. c #A78E3C",
">. c #B38E32",
",. c #BD8F30",
"<. c #A49432",
"1. c #AC9233",
"2. c #AD9738",
"3. c #B49432",
"4. c #BC9631",
"5. c #B59B31",
"6. c #BD9B31",
"7. c #B1953D",
"8. c #B49C3A",
"9. c #BB9D3D",
"0. c #B6A12D",
"q. c #BCA22D",
"w. c #BEA92E",
"e. c #BDA334",
"r. c #BFA830",
"t. c #BFA539",
"y. c #C29424",
"u. c #C59B26",
"i. c #CC9D26",
"p. c #C1962C",
"a. c #C39C2B",
"s. c #C89E2A",
"d. c #C19730",
"f. c #C29D31",
"g. c #C89E34",
"h. c #C29A38",
"j. c #CCA126",
"k. c #C3A42C",
"l. c #CCA42B",
"z. c #C5A92C",
"x. c #CBAB2C",
"c. c #D2A326",
"v. c #D8A427",
"b. c #D2A62B",
"n. c #D4AB2C",
"m. c #DAAC2B",
"M. c #C5B02E",
"N. c #CCB32D",
"B. c #D3B42E",
"V. c #DBB32D",
"C. c #D7BB2E",
"Z. c #DCBB2E",
"A. c #C4A332",
"S. c #CAA533",
"D. c #C5AA32",
"F. c #CBAC34",
"G. c #C6A53B",
"H. c #C9A739",
"J. c #C4AA3B",
"K. c #CCAA3A",
"L. c #D3AD34",
"P. c #DAAF32",
"I. c #D3AD3B",
"U. c #C4B233",
"Y. c #CDB235",
"T. c #CAB33C",
"R. c #CFB83C",
"E. c #D3B435",
"W. c #DBB534",
"Q. c #D5BA34",
"!. c #DABC34",
"~. c #D4B539",
"^. c #DAB63B",
"/. c #D4BA3A",
"(. c #DCBC39",
"). c #E4B52C",
"_. c #E4BA2D",
"`. c #E9B82C",
"'. c #E2B631",
"]. c #E4BB33",
"[. c #E9BC33",
"{. c #E1BD3A",
"}. c #EABF38",
"|. c #DBC42E",
" X c #DCC82F",
".X c #DDC334",
"XX c #DEC833",
"oX c #DDC33A",
"OX c #DDCA3B",
"+X c #E4C52F",
"@X c #ECC32F",
"#X c #E3C433",
"$X c #ECC333",
"%X c #E4CB33",
"&X c #EACC34",
"*X c #E3C43A",
"=X c #EAC43B",
"-X c #E4CB3B",
";X c #EBCC3C",
":X c #F1C332",
">X c #F3C933",
",X c #F1CD3C",
"<X c #F9CD38",
"1X c #E7D233",
"2X c #EAD434",
"3X c #ECD835",
"4X c #E4D13B",
"5X c #ECD43C",
"6X c #EEDA3D",
"7X c #F0D835",
"8X c #F2D43E",
"9X c #FFD53D",
"0X c #F3DA3E",
"qX c #FAD93F",
"wX c #F4E03E",
"eX c #958141",
"rX c #A18D44",
"tX c #A59344",
"yX c #AA9344",
"uX c #AC9B42",
"iX c #A79448",
"pX c #AD954A",
"aX c #B39541",
"sX c #B39D44",
"dX c #B3974A",
"fX c #B39C49",
"gX c #BDA141",
"hX c #B8A04D",
"jX c #C3A946",
"kX c #CEAB41",
"lX c #C2A44A",
"zX c #CBAC4C",
"xX c #CFB244",
"cX c #D2B641",
"vX c #D4BA42",
"bX c #D7B948",
"nX c #D8BC4B",
"mX c #E3C444",
"MX c #E4CB44",
"NX c #EBCF40",
"BX c #E0C54D",
"VX c #F3CB42",
"CX c #ECD341",
"ZX c #F2D542",
"AX c #FCD341",
"SX c #F5DB42",
"DX c #FADD42",
"FX c #E8CE51",
"GX c #E6D054",
"HX c #E8D45F",
"JX c #F6E240",
"KX c #FCE343",
"LX c #FFEA44",
"PX c None",
/* pixels */
"PXPXPXPXPXPXPXPXPXPXPXPXPXPXPXPXPXPXPXPXPXPXPXPXPXPXPX4.3.3.>._ ( =.=.( -.PXPXPXPXPXPXPXPXPXPXPXPXPXPXPXPXPXPXPXPXPXPXPXPXPXPXPX",
"PXPXPXPXPXPXPXPXPXPXPXPXPXPXPXPXPXPXPXPXPXPX$.$._ / $.5.k.A.F.F.F.F.z.q.$.X.( _ { PXPXPXPXPXPXPXPXPXPXPXPXPXPXPXPXPXPXPXPXPXPXPX",
"PXPXPXPXPXPXPXPXPXPXPXPXPXPXPXPXPXPXPXPX) Q ~ $.N.*X0XKXLXLXLXKXLXLXLXLXLXwX-XQ.r.$.{ $.PXPXPXPXPXPXPXPXPXPXPXPXPXPXPXPXPXPXPXPX",
"PXPXPXPXPXPXPXPXPXPXPXPXPXPXPXPXPX$.( G _ Y.,XLXLXLXLXJXDXKXKXDXKXKXLXKXLXKXKXJXLXJXoXD.$.{ PXPXPXPXPXPXPXPXPXPXPXPXPXPXPXPXPXPX",
"PXPXPXPXPXPXPXPXPXPXPXPXPXPXPXPX_ Q _ (.AXKXLXKXKX5X5XJXSXSXKXDXKXKXwXwX3X-X8X0X5XLXLXLX6XD._ / PXPXPXPXPXPXPXPXPXPXPXPXPXPXPXPX",
"PXPXPXPXPXPXPXPXPXPXPXPXPXPX5.$.X.(.DXSXSXDXDXLXOX4XSXZXKX4XDXDXDXKXwX5X-XJX0X0X5XJXLXLXLXLX5X*.n v PXPXPXPXPXPXPXPXPXPXPXPXPXPX",
"PXPXPXPXPXPXPXPXPXPXPXPXPX%._ *XMXDXZXZXZXDXSXwX-XLXKXLXJX5X,XDXDXDXqX-XLXLXLXDX;X5XLXLXLXKXLX5XA.n f PXPXPXPXPXPXPXPXPXPXPXPXPX",
"PXPXPXPXPXPXPXPXPXPXPXH.$.&.*X&X(.ZXZXZXZXDXSXKX4XKXKXDXLX%XZXDXDXKX8X5XJXLXLXqX%X6XLXLXLXLXLX=XP./.$.d PXPXPXPXPXPXPXPXPXPXPXPX",
"PXPXPXPXPXPXPXPXPXPXS.A.q.CX,XE.MX8XSXwXSX5XSXSXLX0XJXKX0XoXqX8X8XDX8XqX8XDXqX8X.XLX0X(.L.E.8X8XP.*XSXz.f * PXPXPXPXPXPXPXPXPXPX",
"PXPXPXPXPXPXPXPXPXA.&.F.=XoXY.*XSX0X5X-X0XJXCXSX6XJXLXSX.X8XqX,X>X,X8X5X8XqX5X(.0XJXW.g.k.d.g.5X-X(.0XLXw.f * PXPXPXPXPXPXPXPXPX",
"PXPXPXPXPXPXPXPXD.6.Y.SX*XF.CXJX,X*X~.NX;XSX6XSXSX6X5X/.mX(.H.$.3.G.H./.oXCXoXLXLX,XL.5XKX-Xd.S.8X=X,X5X5XE.n ; PXPXPXPXPXPXPXPX",
"PXPXPXPXPXPXPXA.$.A./.LX*XR.DXZX;X(.CXCXZXSX0XOXmXcXG.t.3./ Z Q A ( / ;.;.3.J.CX0X*XoXLXKXKXL.%.,X,X8X4X5XKXD.S PXPXPXPXPXPXPXPX",
"PXPXPXPXPXPXPX$.D.^.K.DX*XY.SXZX&XoXMXCXZXCXvX8.1.^ G u k F b G ^ ~ ^ @.$.&.{ ( 6.K.(.LXLXwXS.$.;X,X5X-X-XJX*X{ { PXPXPXPXPXPXPX",
"PXPXPXPXPXPX5.&.NXS.Y.LX(.Y.SXZX-X,X;X;XvXgX1.~ ~ K G  .O.*.#.l.m.V.n.x.u.O.@.^ %.} >.~.4XL.( A.,X;X;X-X;XCX0XA.$._ PXPXPXPXPXPX",
"PXPXPXPXPX&.$.A.A.6.CXLXoXY.ZXZX;XoX*XjXgX6.| ~ q.x.C.|.Q.V.x.n.Z.'.].].V.V.Z.x.k.k.s.,.( ( 4.;X=X-X&X*X=X*X3X,XS.4.d PXPXPXPXPX",
"PXPXPXPXPXX.%.f.e.CXLXKX(.T.ZXZXCXcXpXJ.M. .q.Z.%XCX#X#XW.E.n.n.b.m.P.W.W.Z.$X].>X_.l.S.d.;.=X,X=X=X=XoX=X=XL.F.(._ %.PXPXPXPXPX",
"PXPXPXPX$.$.oX4.~.LXLXKX^.Y.ZXCXcXdXU.q.| Q.3X2X#X-X#X&XZ.V._.n.v.`.b.k.Z.'.'.n.[.:X>XL.S.g.>.^.=X=X*X(.*X=XW.(.S.f ( M PXPXPXPX",
"PXPXPX6.G oXKX~.4.~.KXKX(.~.*XcXdXJ.&.o..X-XZXNX-X%X#X&X$X$X].'.].$XV.].m.V.V._.[.[.>XAX].S.9.A ~.(.W.E.=X}.5X;XQ g f %.PXPXPXPX",
"PXPXPX_ 1.DXSXKX/.f./.KX-X~.G.dXT.&.| .X-XoX/.oX-X3XCX;X*X{.P.n.P.P.P.].].$X>X@X$X$X:X<XAX{.I.,.n 5.e./.=X0X8X$.S C a v v PXPXPX",
"PXPXPX~ oXDXDXKXKX~.e.ZXKX(.aXJ.r.&.|.oX-X.X%X%X5XCX;X#XZ.Z.V.n.m.l.b.b.n.Z.@X@X:X`.}.}.}.AX^.g.( d E.,X*XKXz.} ( g a 8 _ PXPXPX",
"PXPX$.^ /.Y.oXSXLX(.f.ZXDX/.8.w.) N.C.C.|..X2X6X3X%X&X2X&X@XZ.m.n.c.c.n.n._.n.V.:X:X[.m.m.:XVXb.s.v F.,X*XJXF.} ( A v 7 c 8 PXPX",
"PXPX$.6.4.6.4.K.KXoXA.NXNX9.q.G w.|.(.!.|..X5X-X1X3X3X2X&X+X+XE.x.n.u.u.u.c.m.).V.=X:X'.'.[.}.VXS.} v (.=XJXk.%.l.%.f 8 , c PXPX",
"PX&.$.3./.*XY.4.(.NXS.F.J.5.~ K M.U.Q.Q.%X-X#X%X2X3X.X&X&X|..XW.B.Y.l.+.x.m.c._._.].VX'.m.'.].}.].g.v $.8XoX%.L.F.d , , ; f + PX",
"PX3.X.F.NXNXCXA.H.LX-XH.3.) h | q.z.k.z.oX.X|.1X2X2X%X2X%XcX~.Z.V.a.+.u.V._.c._.@X_.b.'.P.y.v.).[.b.] v D.A.g.(.$.9 9 7 ; 8 , PX",
"PX$.5.F.-XNXNXS.A.KXLX/.) F h ~ $.k.x.Q.Q.|.1X1X7X2X1X7X|.^.xXn.j.O.l.l.y.l.u.V.).v.i.c.:Xi.y.p.c.V.y.y ( L.d.(.6.8 7 7 : - 7 PX",
"PX_ %.A.~.oXI.$./.LXSXJ.G 6 H ) L  .z.E.C.N. X1X3X3X X X X!.cXF.*.Y.l.l.y.n.).v.i.j.v.i.v.y.] D ! V.u.A / L.d.4.(.Z 7 7 7 @ 7 PX",
"PX~ e.f.f.g.%.e.SXKXMX1.k e G b G ~  .D.z.B.%XXX4XCX2X%X%X(.(.kXG.W.B.B.V.v.m.j.m.`.).c.i.c.y.i y c.l.! c A.d.( { *.A q ; @ 8 X ",
"3.~ Y.F.A.4.U.SXKXKXR.J e e F b ~  .q.q.N.|..X|.C.nXHXGXGXBXbXK.lXzXK.I.I.H.MX@X).).).m.b.i.i.c.y.u.n.' n } p.( f q / : ; , , O ",
";.) Y./.H.f.F.ZXKXKXJ.G j h r j J @.#.@.z.N.Q.%XC./..XNXvXxX6.O.*.S.h.S.s.Q.mX).c.c.m.c.c.p.c.y.` +.n.~ r _ 4.S c { C & , , , # ",
"_ ) Y.Y./.A.d.F.DXDXG.m e k k r k ^ $.q.z.B.Q.Z.|.R.%X%XZ.oX/.a.l.l.s.n.c.l.I.m._.).).v.v.p.] i w +.n._ c / } S S.4.: : , , : $ ",
";._ F.F.E.(.D.d.K.NX8.L e F k G Q ^ ~ ^ q.z.N.N.z.t.Q.%XC.!.~.+.l.n.b.n.j.P.{.'.@XV.m.y.] ' y.' u #.l.! G Z } (.W.9 : : , , : * ",
"_ ) D.H.Y.(.MXY.f.6.-.L k F F G ~ ~ n ~ #.z.x.N.M.e.!.+Xn.n.K.O.l.V.'.B.c.W.{.m.n.c.i.u.l.' +.+.+.y.n.X.G _ 4X5Xc , 7 , , 7 : # ",
") Q A.A.F.(.*XF.5.6.;.P e F b k ~ G J  .A.q.@.q.k.o.k.!.l.S.H.&.l.n.P.V.i.K.W.B.b.k.s.s.l.%.] ' u ~ u.Q F n D.;X$.7 7 , , 7 ; # ",
";.Q e.A.F.~.H.%.F.CXt...e b F | Q G G ^ O.X.F.k.z.0.e.Z.k.n.S.] b.l.s.n.s.^.L.V.(.l.a.' ' ` +.` u ^ #.b G / { $.^./ : , , 7 & # ",
") M 6.k.H.S.%.A.8XCXe.X.k F ~  .n b G _ 5.6.F.F.x.@...x.] F.I.6.6.f.g.c.d.S.i.u.F.S.n.u.a.] ! y t ! O.G G / } C ( a.f ; : , : # ",
"( n 5.e.A.4.6.CXZX,Xe. .k F  .e r G ~ O.X.5.q.Y.0.k.G D.j.a.d.l.s.S.k.l.$.W.Z.l.+.*.a.%.y.] ` r < r ~ b G / } A 9 f ( : : 7 & O ",
") m $.f.A.f.H.-XSXNXe.=.F k | F G ^ O.O.) X.&.$.#.k.#.T A.6.$.*.! %.! +.s.l.|.(.k.*.! _ ' ` ' ^ 0 0 n k G ( [ v f Z ( d , : : . ",
"PXv $.H.+.5.f.A.;X,Xe.L H k ~ F G b G _ X.~ 5.A.F.z.@.J G %.+.%.' F.l.V.V.*.a.s.k.k.k.u.O.` Q u 0 r b m c %.} Z H.a.v f a & &   ",
"PXn 4._ $.H.H.d.Y.;XJ.J G h F b < e n G )  .&.&.o.0.#.D.m $.] +.+.a.u.l.a.a.+.$.%.] +.+.' Q c 0 r G b F J d.S f.E., % ; 7 : & PX",
"PX/ $._ S.Y.(.A.e.=XK.J P k e F e r k G ~ &.&.~ ) t.t.q.6.z ) &._ ! &.{ _ _ 3.e.A.' +.'  .Q Q c u n m j v 4.S L._ % : : , ; % PX",
"PXn / $.f.F.^.A.6.*XA.;.H H h e e j k F _ ~ &.O. .&.L X.*.$.d J &._ ! $.Y.Y.! z.z.k._ ' ^ G n u n / x > f [ Z S.q.; ; ; 7 ; + PX",
"PXPX/ f.6.A.S.%.F.^.g.n p P l 6 k h s b G ~ _ 5.^ 0._ ^ 5.X.) / +.S.$.{ P.k.! z.E.k._ _ c r c b G J k d n { C / L./ 7 9 7 , . PX",
"PXPXn X.A.f.%.6.{.F.$.n d x F 6 k k e G L X.~ ) 5.q.0.q.~ $._ X.{ *.{ &.! ! &.F.A.#.*.$.L c f j M b < { } { C 9 n %.{ C , , PXPX",
"PXPXZ c $.$.D.(.{.F.$.( m 2 F x l h h j m G X. .&.r.3.A._ ) ) ) _ +.{ k.$.5.6.*.z.*.$.) G n c M Y < c a.} ( c 9 , ; : @ , ; PXPX",
"PXPXPXn } S.Y.(.W.H.$.M M d z H x h k j j F <.X.&.X.~ $./ X./ ) %.A.6.Y.A.k.*.D.H.6.+.Q n n J :.j o C d.[ ( A 8 , ; % - c   PXPX",
"PXPXPXM Z A.K.P.S.6.n n / 4.s s H I x / m m -.) =.) L J ~ Q ) _ $.S.L.D.R.W.!.Y.F.q.X.$.G =.:.m * @ : / } Z a.Z ; - @ q 9 PXPXPX",
"PXPXPXPXC $.A.A.4./ ! n 4./ 5 2 z <.E K L x m G L ..) ) ) X.( 1.$.6.S.F.Y.E.A.e.&.) L G -.yX/ $ p / , 7 [ Z Z g.t % - { o PXPXPX",
"PXPXPXPX[ _ g.d._ %./ v 5.v d d 2 F P U Y H z H <.X.L _ L 1.Q =.) ) ) 3.1.J.5.#.@.X._ 7.fX$.= ; v [ 8 , ( Z q v a., n c PXPXPXPX",
"PXPXPXPXPX{ 4.S.4.$./ c %.v q c f 2 l P U E V l k G b X.M =.G x H =.=.5.1.J.D.w.$.-.hXsX;.* & g C ( 7 , S C g ^ s.M *.  PXPXPXPX",
"PXPXPXPXPX4.$._ f.4.v f 5.v d v v c 2 2 P K E R I 6 5 6 6 l x G H ) X.5.0.&.q.8.yXtX2.m # 3 a f C S 8 , Z v ( Z q S.s PXPXPXPXPX",
"PXPXPXPXPXPXL.f.$.g.n d %.v q f C n s d 2 h P K I B N l 6 l z m G J X.-.8.sXfXtX2.F = O 3 a f 9 v C 7 , C c f @ q.e.PXPXPXPXPXPX",
"PXPXPXPXPXPXPXW.$.4._ a %.k 9 f / f ( ( J p 5 k K K W E R B B eXeXpXrXiXuXuXT F s > , f f d a 7 f C 7 : v c , ~ *XX PXPXPXPXPXPX",
"PXPXPXPXPXPXPXPX4X6.c 9 $.f 9 d Z c ( } >.( c a d F | ..o.<.<.T Y 2.-.K x 1 5 c v A f v f 9 a 7 q v 7 & f 7 n 6X= PXPXPXPXPXPXPX",
"PXPXPXPXPXPXPXPX6.8Xc f 4./ d d n n v ( ( A c A A [ $.d s n M d s 5 > f a , v 5._ A C d 9 f f 7 f f 7 : 7 v 6Xj PXPXPXPXPXPXPXPX",
"PXPXPXPXPXPXPXPXPXT.5X$._ $._ d f v v v c f v ( $.$.%.g./ d g f a a A C d f C C Q v Z A n v , 7 9 7 % @ r 6Xj PXPXPXPXPXPXPXPXPX",
"PXPXPXPXPXPXPXPXPXPXLX0Xv , ( A d c f f f v ( S A d d C %.g f g g [ C p c _ A C g c d a 9 , , 9 7 ; & Q 0Xr PXPXPXPXPXPXPXPXPXPX",
"PXPXPXPXPXPXPXPXPXPXPXPX0X&.a ( d v A ( ( ( A c d A v f ( C d C A ( a a %.%.( C c 9 9 8 , , 7 7 , : 6.*X> PXPXPXPXPXPXPXPXPXPXPX",
"PXPXPXPXPXPXPXPXPXPXPXPXPX8X(./ 7 c C A S S C f g v g f A C a g C A a f } [ S v f 8 9 7 , 7 , : , 6.F.X PXPXPXPXPXPXPXPXPXPXPXPX",
"PXPXPXPXPXPXPXPXPXPXPXPXPXPXz.5Xe.n g C A Z Z f f f f g S p f g C A f p v A v v 9 , 7 , : % , Z a.r PXPXPXPXPXPXPXPXPXPXPXPXPXPX",
"PXPXPXPXPXPXPXPXPXPXPXPXPXPXPXPXOXJXA.n v C Z g a f C A d 7 a f v C C a 8 f g a : : ; - ; n u.( o PXPXPXPXPXPXPXPXPXPXPXPXPXPXPX",
"PXPXPXPXPXPXPXPXPXPXPXPXPXPXPXPXPXPXOX6XY._ v c d 9 9 7 7 a a f g v C v a 8 7 : : , q { g._ = PXPXPXPXPXPXPXPXPXPXPXPXPXPXPXPXPX",
"PXPXPXPXPXPXPXPXPXPXPXPXPXPXPXPXPXPXPXPXU.6X5XN._ c a 7 7 7 8 a a f c f a a q Z z.*X(.Z + PXPXPXPXPXPXPXPXPXPXPXPXPXPXPXPXPXPXPX",
"PXPXPXPXPXPXPXPXPXPXPXPXPXPXPXPXPXPXPXPXPXPXH U.4X4XOXQ.A.&.X._ } $.e.F./.oX*X.Xq.h PXPXPXPXPXPXPXPXPXPXPXPXPXPXPXPXPXPXPXPXPXPX",
"PXPXPXPXPXPXPXPXPXPXPXPXPXPXPXPXPXPXPXPXPXPXPXPXPXPXe ) 0.U.Y.Y.Y.F.r.&.G 0 PXPXPXPXPXPXPXPXPXPXPXPXPXPXPXPXPXPXPXPXPXPXPXPXPXPX"
};
