/* XPM */
static char *a7431018dd954af0dad2711fa5c3c94d[] = {
/* columns rows colors chars-per-pixel */
"16 16 207 2 ",
"   c #72521D",
".  c #72531E",
"X  c #654D24",
"o  c #6C5020",
"O  c #6E5221",
"+  c #695127",
"@  c #765F26",
"#  c #786125",
"$  c #87651E",
"%  c #88621F",
"&  c #89651E",
"*  c #8C671F",
"=  c #8A6822",
"-  c #8F6820",
";  c #8E6920",
":  c #8F6C22",
">  c #846F2A",
",  c #876F2D",
"<  c #916D21",
"1  c #946C22",
"2  c #976F23",
"3  c #996F23",
"4  c #897623",
"5  c #8A7622",
"6  c #8E7522",
"7  c #8A7626",
"8  c #85712C",
"9  c #8D7B2A",
"0  c #8F792E",
"q  c #8F7E2D",
"w  c #977324",
"e  c #927426",
"r  c #957626",
"t  c #997524",
"y  c #997525",
"u  c #9A7425",
"i  c #9B7725",
"p  c #9D7525",
"a  c #9C7624",
"s  c #907B24",
"d  c #967926",
"f  c #907C24",
"g  c #987F23",
"h  c #987B25",
"j  c #9D7825",
"k  c #9F7926",
"l  c #90762A",
"z  c #947629",
"x  c #947B2B",
"c  c #957A2C",
"v  c #917E2C",
"b  c #927E2E",
"n  c #9B7A28",
"m  c #997B2A",
"M  c #9D7F2A",
"N  c #806B33",
"B  c #8D7330",
"V  c #917D34",
"C  c #A07B26",
"Z  c #A67E27",
"A  c #A37F28",
"S  c #958024",
"D  c #9F8223",
"F  c #98802E",
"G  c #99862C",
"H  c #9B8734",
"J  c #9D8139",
"K  c #A38123",
"L  c #A38626",
"P  c #A88C26",
"I  c #A78328",
"U  c #A5842A",
"Y  c #A5852C",
"T  c #A88029",
"R  c #AA8429",
"E  c #A5882A",
"W  c #A68D29",
"Q  c #A48C2B",
"!  c #AA8829",
"~  c #AA8C2A",
"^  c #AF8A2C",
"/  c #B28A23",
"(  c #B38E2C",
")  c #AF902C",
"_  c #B49025",
"`  c #BC9325",
"'  c #BF9324",
"]  c #B0902A",
"[  c #B2962B",
"{  c #B6942B",
"}  c #B6932E",
"|  c #B4942D",
" . c #B9942E",
".. c #B49A2B",
"X. c #B3992D",
"o. c #B69B2D",
"O. c #B9992B",
"+. c #BE9829",
"@. c #BD992A",
"#. c #BF9D2A",
"$. c #BB9B2F",
"%. c #BC9F2E",
"&. c #BF9E2E",
"*. c #A28533",
"=. c #A48D33",
"-. c #AC8F31",
";. c #A88F36",
":. c #AD8F3E",
">. c #AE9936",
",. c #AF9639",
"<. c #AC923C",
"1. c #AD953E",
"2. c #B09537",
"3. c #B39833",
"4. c #B69A30",
"5. c #B79D31",
"6. c #B0963A",
"7. c #B79E39",
"8. c #BEA32D",
"9. c #C99B26",
"0. c #C49F2F",
"q. c #C09C31",
"w. c #C09E32",
"e. c #C0A32C",
"r. c #C4A12D",
"t. c #C7A22E",
"y. c #CBA329",
"u. c #C9A32C",
"i. c #C9A32D",
"p. c #CAA22D",
"a. c #C8A42D",
"s. c #CCA52F",
"d. c #C7AD2E",
"f. c #C9AE2D",
"g. c #D5AB2C",
"h. c #D3AC2F",
"j. c #D8AE29",
"k. c #DAAD2B",
"l. c #DCAD29",
"z. c #DBB12E",
"x. c #C1A634",
"c. c #C0A736",
"v. c #C8A533",
"b. c #C9A633",
"n. c #C2A835",
"m. c #C4AA35",
"M. c #C9AB33",
"N. c #CFAC32",
"B. c #CDAA35",
"V. c #CBAE37",
"C. c #C3AB3A",
"Z. c #C6AD3B",
"A. c #D1AA36",
"S. c #D0AD36",
"D. c #D0AF36",
"F. c #CFB236",
"G. c #D1B135",
"H. c #D2B137",
"J. c #D2B336",
"K. c #D4B436",
"L. c #DAB232",
"P. c #D7BD37",
"I. c #DFBF31",
"U. c #D3B739",
"Y. c #D6B738",
"T. c #D7B738",
"R. c #D4BA3B",
"E. c #D6BA3D",
"W. c #D7BB3D",
"Q. c #D9BB3A",
"!. c #DBBE3A",
"~. c #DABE3F",
"^. c #E0B232",
"/. c #E2BB31",
"(. c #E5BB30",
"). c #E7BB31",
"_. c #DCC330",
"`. c #DBC235",
"'. c #DDC03A",
"]. c #DBC23C",
"[. c #DFC13C",
"{. c #ECC133",
"}. c #E6CC36",
"|. c #E3C139",
" X c #E3C33A",
".X c #E1C63B",
"XX c #E3C73B",
"oX c #E1C93D",
"OX c #E5CB3C",
"+X c #EACB3B",
"@X c #EACE3D",
"#X c #E9CC3E",
"$X c #ECCC3C",
"%X c #EBD435",
"&X c #E9D33A",
"*X c #ECD039",
"=X c #DFC240",
"-X c #EDD140",
";X c #F1D640",
":X c #F2D841",
">X c #F8DD42",
",X c #F9E341",
"<X c #FBE441",
"1X c #FEE543",
"2X c #FCE642",
"3X c #FEE643",
"4X c None",
/* pixels */
"4X4X4X4X4X;.Z.E.R.C.,.4X4X4X4X4X",
"4X4X4X,.'.>X2X3X3X2X,XOXB 4X4X4X",
"4X4X7.XX;X:X.XG.G.XX#XXX+X0 4X4X",
"4X<.'.-X[.m.8.q.u.u.N.D.$X$XN 4X",
"4XU.#X~.c.`.&X/.z.(.{.A.D.|.A 4X",
"1.Q.[.5.d.}.%XI.y.j.).^.0.K.j + ",
"2.T.].s .._.&XE.v.g.l.9.`  .j O ",
"3.T.n.5 P f.P.G.s.L.l.` _ | t . ",
"-.G.n.S L 8.e.r.p.h.u./ D ) t . ",
"*.B.V.9 g [ o.] +.r.+.K 6 ^ t O ",
"J v.&.7 4 W X.~ | 0.O.d d R < X ",
"4Xq.} w 9 G Q E $.M.o.c : Z & 4X",
"4X<.( t e F q q =.>.F = - k 8 4X",
"4X4XV T 3 C U m z n w % - > 4X4X",
"4X4X4XH ! T 3 1 3 p - & @ 4X4X4X",
"4X4X4X4X4X8 x F Y l # 4X4X4X4X4X"
};
